<?xml version="1.0" encoding="UTF-8"?><svg xmlns="http://www.w3.org/2000/svg" xml:space="preserve" viewBox="0 0 24 24"><style>path{fill:#000;}@media(prefers-color-scheme: dark){path{fill:#FFF;}}</style><path d="M11.94 2c-1.12 0-2.22.12-3.27.37A8.44 8.44 0 0 0 2.4 8.66a14.45 14.45 0 0 0 0 6.67 8.44 8.44 0 0 0 6.28 6.28c2.2.52 4.47.52 6.66 0a8.44 8.44 0 0 0 6.29-6.28c.5-2.2.5-4.48 0-6.67a8.44 8.44 0 0 0-6.29-6.3 15.75 15.75 0 0 0-3.4-.36zm.12 1.03c1.04 0 2.06.12 3.03.35a7.4 7.4 0 0 1 5.52 5.51 13.8 13.8 0 0 1 0 6.2 7.4 7.4 0 0 1-5.52 5.51c-2.03.48-4.15.48-6.18 0a7.4 7.4 0 0 1-5.51-5.5 13.57 13.57 0 0 1 0-6.2 7.4 7.4 0 0 1 5.5-5.51 14.3 14.3 0 0 1 3.16-.35zM9 5.24 6 6.76v7.47l9 4.5 2.99-1.5v-4.5l-3-1.5V9.75l-3-1.5v-1.5L9 5.25zm0 .84 1.75.88-1.75.9-1.75-.9zM6.76 7.54 9.01 8.7v6.2l-2.25-1.13zm5.25 1.54 1.75.88-1.75.9-1.75-.9zm-2.25 1.46 2.25 1.16v4.7l-2.25-1.13v-4.73zM15 12.08l1.76.88-1.76.9-1.75-.9zm-2.24 1.46L15 14.7v3.2l-2.24-1.13z"/></svg>
