<?xml version="1.0" encoding="UTF-8"?>
<svg version="1.1" viewBox="0 0 24 24" xml:space="preserve" xmlns="http://www.w3.org/2000/svg">
  <style>
    path {
      fill: black;
    }
    @media (prefers-color-scheme: dark) {
        path {
            fill: white;
        }
    }
  </style>
  <path d="m11.936 2c-1.1206 0.0018117-2.2188 0.12471-3.2653 0.36557-3.1183 0.73218-5.5532 3.1697-6.2847 6.2911-0.51396 2.1933-0.51396 4.475 0 6.6684 0.73143 3.1214 3.1665 5.557 6.2847 6.2891 2.191 0.51445 4.4685 0.51445 6.6597 0 3.1184-0.73214 5.5533-3.1676 6.2847-6.2891 0.51393-2.1932 0.51393-4.4751 0-6.6684-0.73139-3.1214-3.1664-5.5588-6.2847-6.2911-1.1318-0.24812-2.2736-0.36738-3.3942-0.36557zm0.12304 1.0342c1.0408 0.0019 2.0624 0.11825 3.035 0.34212 2.7342 0.64198 4.87 2.7801 5.5113 5.5169 0.47747 2.0375 0.47747 4.1558 0 6.1933-0.64129 2.737-2.7773 4.875-5.5113 5.5169-2.0354 0.47796-4.1516 0.47796-6.187 0-2.7342-0.64194-4.87-2.7801-5.5113-5.5169-0.47745-2.0375-0.47745-4.1558 0-6.1933 0.64133-2.737 2.7773-4.875 5.5113-5.5169 1.0515-0.23147 2.1112-0.34402 3.1521-0.34212zm-3.0467 2.2072-3.0096 1.517s-0.00488 4.9557 0 7.4758c2.9533 1.4779 6.2357 3.12 9.0013 4.5042l2.9959-1.4994v-4.5003l-2.9959-1.4994v-1.4994l-2.9959-1.4994v-1.4994l-2.9959-1.4994zm0 0.84063 1.7519 0.87582-1.7519 0.90124-1.7519-0.90124zm-2.2478 1.4623 2.2478 1.1534v6.2011l-2.2478-1.1241zm5.2437 1.5366 1.7519 0.87582-1.7519 0.90124-1.7519-0.90124zm-2.2478 1.4623 2.2478 1.1534v3.3645c-0.0029 0.40982-0.0052 0.85478-0.0059 1.3353l-2.242-1.1222v-4.731zm5.2437 1.5366 1.7519 0.87582-1.7519 0.90124-1.7519-0.90124zm-2.2478 1.4623 2.2478 1.1534v3.2022l-2.2478-1.1241z"/>
</svg>
